<svg width="24" height="24" viewBox="0 0 24 24" fill="none" xmlns="http://www.w3.org/2000/svg">
<path d="M4.91982 16.2741V14.8217C4.91982 14.1009 5.22104 13.5093 5.8235 13.0467L8.93796 10.5938C9.47587 10.185 9.74482 9.67937 9.74482 9.07692V8.49598C9.74482 7.58155 9.28222 7.12433 8.35702 7.12433H7.37266C6.46898 7.12433 6.01714 7.58155 6.01714 8.49598V9.15761C6.01714 9.31898 5.94183 9.39966 5.79122 9.39966H5.06505C4.9252 9.39966 4.85527 9.31898 4.85527 9.15761V8.47985C4.85527 7.73754 5.06505 7.16198 5.48462 6.75317C5.90418 6.33361 6.48512 6.12383 7.22743 6.12383H8.5184C9.2607 6.12383 9.84164 6.33361 10.2612 6.75317C10.6808 7.16198 10.8906 7.73754 10.8906 8.47985V9.14147C10.8906 9.9806 10.5571 10.6637 9.89005 11.1909L6.72717 13.6921C6.37216 13.9719 6.19465 14.3107 6.19465 14.7088V15.4511H10.6969C10.8475 15.4511 10.9228 15.5264 10.9228 15.677V16.2741C10.9228 16.4247 10.8475 16.5 10.6969 16.5H5.14574C4.99512 16.5 4.91982 16.4247 4.91982 16.2741ZM12.7047 16.2741V14.8217C12.7047 14.1009 13.0059 13.5093 13.6084 13.0467L16.7229 10.5938C17.2608 10.185 17.5297 9.67937 17.5297 9.07692V8.49598C17.5297 7.58155 17.0671 7.12433 16.1419 7.12433H15.1576C14.2539 7.12433 13.802 7.58155 13.802 8.49598V9.15761C13.802 9.31898 13.7267 9.39966 13.5761 9.39966H12.85C12.7101 9.39966 12.6402 9.31898 12.6402 9.15761V8.47985C12.6402 7.73754 12.85 7.16198 13.2695 6.75317C13.6891 6.33361 14.27 6.12383 15.0123 6.12383H16.3033C17.0456 6.12383 17.6265 6.33361 18.0461 6.75317C18.4657 7.16198 18.6755 7.73754 18.6755 8.47985V9.14147C18.6755 9.9806 18.342 10.6637 17.675 11.1909L14.5121 13.6921C14.1571 13.9719 13.9796 14.3107 13.9796 14.7088V15.4511H18.4818C18.6324 15.4511 18.7077 15.5264 18.7077 15.677V16.2741C18.7077 16.4247 18.6324 16.5 18.4818 16.5H12.9306C12.78 16.5 12.7047 16.4247 12.7047 16.2741Z" fill="#FFD667"/>
</svg>
