<svg width="24" height="24" viewBox="0 0 24 24" fill="none" xmlns="http://www.w3.org/2000/svg">
<mask id="path-1-inside-1_3402_16" fill="white">
<path d="M7.70622 9.45133L11.8331 7.11284C11.9363 7.05429 12.0636 7.05429 12.1669 7.11284L16.2938 9.45133C16.397 9.50988 16.4607 9.61801 16.4607 9.7351V14.4121C16.4607 14.5291 16.397 14.6373 16.2938 14.6959L12.1669 17.0344C12.0636 17.093 11.9363 17.093 11.8331 17.0344L7.70622 14.6959C7.60294 14.6374 7.53929 14.5292 7.53929 14.4121V9.7351C7.53938 9.61801 7.60303 9.50988 7.70622 9.45133"/>
</mask>
<path d="M11.8331 7.11284L12.2275 7.80886L12.2276 7.80879L11.8331 7.11284ZM12.1669 7.11284L11.7724 7.80879L11.7725 7.80886L12.1669 7.11284ZM16.2938 9.45133L16.6886 8.75552L16.6882 8.75531L16.2938 9.45133ZM16.2938 14.6959L16.6882 15.392L16.689 15.3915L16.2938 14.6959ZM12.1669 17.0344L11.7725 16.3384L11.7724 16.3385L12.1669 17.0344ZM11.8331 17.0344L12.2276 16.3385L12.2275 16.3384L11.8331 17.0344ZM7.70622 14.6959L7.3117 15.3919L7.31181 15.392L7.70622 14.6959ZM7.53929 9.7351L6.73929 9.73451V9.7351H7.53929ZM8.10062 10.1474L12.2275 7.80886L11.4386 6.41681L7.31181 8.75531L8.10062 10.1474ZM12.2276 7.80879C12.0861 7.88897 11.9138 7.88897 11.7724 7.80879L12.5614 6.41688C12.2134 6.21961 11.7865 6.21961 11.4385 6.41688L12.2276 7.80879ZM11.7725 7.80886L15.8994 10.1474L16.6882 8.75531L12.5613 6.41681L11.7725 7.80886ZM15.8991 10.1472C15.7567 10.0664 15.6607 9.91164 15.6607 9.7351H17.2607C17.2607 9.32438 17.0373 8.95334 16.6886 8.75552L15.8991 10.1472ZM15.6607 9.7351V14.4121H17.2607V9.7351H15.6607ZM15.6607 14.4121C15.6607 14.2355 15.7567 14.081 15.8986 14.0004L16.689 15.3915C17.0373 15.1936 17.2607 14.8227 17.2607 14.4121H15.6607ZM15.8994 13.9999L11.7725 16.3384L12.5613 17.7305L16.6882 15.392L15.8994 13.9999ZM11.7724 16.3385C11.9138 16.2583 12.0861 16.2583 12.2276 16.3385L11.4385 17.7304C11.7865 17.9277 12.2134 17.9277 12.5614 17.7304L11.7724 16.3385ZM12.2275 16.3384L8.10062 13.9999L7.31181 15.392L11.4386 17.7305L12.2275 16.3384ZM8.10073 14C8.24367 14.081 8.33929 14.2361 8.33929 14.4121H6.73929C6.73929 14.8223 6.96222 15.1938 7.3117 15.3919L8.10073 14ZM8.33929 14.4121V9.7351H6.73929V14.4121H8.33929ZM8.33929 9.73568C8.33916 9.91138 8.24368 10.0662 8.10098 10.1472L7.31145 8.75552C6.96238 8.95356 6.73959 9.32465 6.73929 9.73451L8.33929 9.73568Z" fill="#FFD667" mask="url(#path-1-inside-1_3402_16)"/>
<path d="M22.3846 11.7837L22.3851 11.7845C22.4906 11.9637 22.4905 12.1651 22.3851 12.3441C22.3851 12.3442 22.3851 12.3442 22.3851 12.3443L17.4544 20.7081L17.4541 20.7085C17.3622 20.8648 17.1802 20.9667 16.9308 20.9667H7.06919C6.82387 20.9667 6.63939 20.8631 6.54567 20.7038L6.54535 20.7033L1.61491 12.3535C1.61486 12.3534 1.61481 12.3533 1.61476 12.3532C1.50943 12.174 1.50949 11.9451 1.61491 11.7658L1.6151 11.7655L6.54567 3.3651C6.5457 3.36504 6.54574 3.36499 6.54577 3.36493C6.66642 3.16 6.87733 3.03329 7.06919 3.03329H16.9309C17.1225 3.03329 17.3332 3.15976 17.4539 3.36448C17.454 3.36469 17.4542 3.36489 17.4543 3.3651L22.3846 11.7837Z" stroke="#FFD667" stroke-width="0.8"/>
</svg>
