<svg width="24" height="24" viewBox="0 0 24 24" fill="none" xmlns="http://www.w3.org/2000/svg">
<path d="M9.3825 19.1515C4.62338 20.5793 4.62338 16.772 2.71973 16.296M16.0453 22.007V18.3234C16.081 17.8696 16.0197 17.4133 15.8654 16.985C15.7111 16.5566 15.4675 16.166 15.1506 15.8392C18.1393 15.506 21.2803 14.3734 21.2803 9.17639C21.2801 7.84748 20.7689 6.56953 19.8526 5.60705C20.2865 4.4444 20.2558 3.15929 19.7669 2.01867C19.7669 2.01867 18.6438 1.68553 16.0453 3.42737C13.8637 2.83611 11.5641 2.83611 9.3825 3.42737C6.78402 1.68553 5.66087 2.01867 5.66087 2.01867C5.17199 3.15929 5.14131 4.4444 5.5752 5.60705C4.65205 6.57667 4.14035 7.86617 4.14746 9.20495C4.14746 14.3638 7.28849 15.4965 10.2772 15.8677C9.96407 16.1913 9.72256 16.5772 9.5684 17.0003C9.41425 17.4234 9.35091 17.8742 9.3825 18.3234V22.007" stroke="#FFD667" stroke-width="0.951825" stroke-linecap="round" stroke-linejoin="round"/>
</svg>
