<svg width="24" height="24" viewBox="0 0 24 24" fill="none" xmlns="http://www.w3.org/2000/svg">
<path d="M10.1997 2.10473C10.5669 2.86225 11.6778 2.75617 11.8951 1.94284C11.9047 1.90666 11.9202 1.89086 11.9327 1.88196C11.9482 1.87084 11.9717 1.86227 12 1.86227C12.0283 1.86227 12.0518 1.87084 12.0673 1.88196C12.0798 1.89086 12.0953 1.90666 12.1049 1.94284C12.3222 2.75617 13.4331 2.86225 13.8003 2.10473C13.8166 2.07104 13.8348 2.05845 13.8488 2.05206C13.8661 2.04409 13.8908 2.04012 13.9186 2.04547C13.9464 2.05083 13.9678 2.06368 13.981 2.07754C13.9915 2.08864 14.0037 2.10709 14.0063 2.14444C14.0657 2.98418 15.1365 3.29859 15.6405 2.62426C15.6629 2.59427 15.6831 2.58535 15.698 2.58171C15.7166 2.57717 15.7415 2.57794 15.7678 2.58846C15.7941 2.59898 15.8127 2.61565 15.823 2.63175C15.8312 2.64465 15.8397 2.66507 15.8353 2.70225C15.7347 3.53805 16.7266 4.04942 17.3491 3.48266C17.3767 3.45745 17.3983 3.45253 17.4136 3.45177C17.4327 3.45082 17.4571 3.4563 17.4809 3.4716C17.5047 3.4869 17.5198 3.5068 17.5269 3.52456C17.5325 3.53878 17.537 3.56044 17.5256 3.5961C17.2686 4.39776 18.1458 5.08761 18.8643 4.64889C18.8963 4.62938 18.9184 4.62863 18.9335 4.63077C18.9525 4.63345 18.9753 4.64345 18.9958 4.66298C19.0163 4.68251 19.0274 4.70491 19.031 4.72368C19.0338 4.73872 19.0341 4.76084 19.0162 4.79369C18.6121 5.53224 19.3429 6.37563 20.1315 6.08082C20.1665 6.0677 20.1884 6.07115 20.2029 6.07612C20.2209 6.08234 20.2415 6.09648 20.2579 6.11954C20.2744 6.1426 20.281 6.16668 20.281 6.1858C20.2809 6.2011 20.277 6.22288 20.2532 6.25174C19.7167 6.90047 20.2747 7.86693 21.1047 7.72667C21.1417 7.72043 21.1625 7.72795 21.1757 7.73558C21.1923 7.7451 21.2098 7.76289 21.2216 7.78864C21.2334 7.81438 21.2353 7.83929 21.2317 7.85805C21.2287 7.87307 21.2208 7.89372 21.1919 7.91754C20.5423 8.45301 20.9073 9.50761 21.7489 9.52698C21.7864 9.52784 21.8054 9.53916 21.817 9.54916C21.8314 9.56165 21.8453 9.58243 21.852 9.60994C21.8586 9.63745 21.8558 9.66227 21.8487 9.68C21.843 9.6942 21.8313 9.71297 21.7984 9.73089C21.0592 10.1338 21.218 11.2384 22.0408 11.4167C22.0774 11.4246 22.0939 11.4393 22.1034 11.4513C22.1152 11.4663 22.1249 11.4894 22.1262 11.5176C22.1276 11.5459 22.1202 11.5697 22.1098 11.5858C22.1015 11.5987 22.0864 11.6149 22.0508 11.6263C21.2487 11.8819 21.1956 12.9967 21.9697 13.3274C22.0042 13.3422 22.0176 13.3597 22.0246 13.3733C22.0334 13.3903 22.0386 13.4147 22.0345 13.4427C22.0305 13.4708 22.0187 13.4928 22.0055 13.5066C21.9949 13.5176 21.977 13.5307 21.9399 13.5351C21.1039 13.6344 20.8408 14.7189 21.5383 15.1902C21.5694 15.2112 21.5792 15.231 21.5836 15.2457C21.589 15.264 21.5894 15.289 21.5802 15.3157C21.5709 15.3425 21.5551 15.3618 21.5395 15.3729C21.5271 15.3818 21.5071 15.3912 21.4697 15.3885C20.6301 15.3278 20.1665 16.3429 20.7622 16.9377C20.7887 16.9642 20.7947 16.9855 20.7961 17.0007C20.798 17.0197 20.7937 17.0444 20.7795 17.0689C20.7654 17.0934 20.7462 17.1094 20.7288 17.1173C20.7149 17.1236 20.6935 17.1292 20.6573 17.1194C19.8443 16.9009 19.197 17.81 19.6694 18.5068C19.6904 18.5377 19.6922 18.5598 19.6908 18.575C19.689 18.5941 19.6801 18.6174 19.6616 18.6388C19.643 18.6602 19.6212 18.6723 19.6026 18.6768C19.5877 18.6804 19.5657 18.6817 19.532 18.6653C18.7751 18.2969 17.9674 19.067 18.2994 19.8406C18.3142 19.875 18.3118 19.897 18.3075 19.9117C18.3021 19.9301 18.289 19.9513 18.2667 19.9688C18.2445 19.9863 18.2207 19.9941 18.2016 19.9949C18.1864 19.9956 18.1644 19.9928 18.1345 19.9703C17.4609 19.4653 16.5221 20.0686 16.7017 20.8911C16.7097 20.9277 16.7032 20.9488 16.6962 20.9624C16.6875 20.9794 16.6705 20.9978 16.6454 21.0108C16.6202 21.0237 16.5954 21.0269 16.5765 21.0241C16.5614 21.0219 16.5404 21.015 16.5152 20.9872C15.9494 20.3639 14.9134 20.7786 14.9341 21.6202C14.935 21.6577 14.9246 21.6772 14.9152 21.6892C14.9034 21.7043 14.8833 21.7191 14.8561 21.7271C14.829 21.7351 14.804 21.7334 14.786 21.7272C14.7715 21.7221 14.7522 21.7113 14.7328 21.6793C14.2952 20.9602 13.1994 21.1714 13.0604 22.0016C13.0543 22.0386 13.0403 22.0558 13.0288 22.0658C13.0144 22.0784 12.9918 22.0891 12.9637 22.0918C12.9355 22.0945 12.9113 22.0882 12.8948 22.0786C12.8815 22.0709 12.8646 22.0567 12.8516 22.0216C12.558 21.2326 11.442 21.2326 11.1484 22.0216C11.1354 22.0567 11.1185 22.0709 11.1052 22.0786C11.0887 22.0882 11.0645 22.0945 11.0363 22.0918C11.0082 22.0891 10.9856 22.0784 10.9712 22.0658C10.9597 22.0558 10.9457 22.0386 10.9396 22.0016C10.8006 21.1714 9.70482 20.9602 9.26723 21.6793C9.24777 21.7113 9.22846 21.7221 9.21401 21.7272C9.19596 21.7334 9.17103 21.7351 9.14387 21.7271C9.11671 21.7191 9.09661 21.7043 9.08483 21.6892C9.07539 21.6772 9.06499 21.6577 9.06591 21.6202C9.08661 20.7786 8.05057 20.3639 7.48479 20.9872C7.45963 21.015 7.43862 21.0219 7.42348 21.0241C7.40457 21.0269 7.37978 21.0237 7.35462 21.0108C7.32947 20.9978 7.31253 20.9794 7.30381 20.9624C7.29682 20.9488 7.2903 20.9277 7.29829 20.8911C7.47789 20.0686 6.53907 19.4653 5.86554 19.9703C5.83559 19.9928 5.81365 19.9956 5.79836 19.9949C5.77926 19.9941 5.75552 19.9863 5.73327 19.9688C5.71102 19.9513 5.69787 19.9301 5.69252 19.9117C5.68824 19.897 5.68584 19.875 5.70061 19.8406C6.03261 19.067 5.22494 18.2969 4.46801 18.6653C4.43434 18.6817 4.41226 18.6804 4.39738 18.6768C4.37879 18.6723 4.35695 18.6602 4.33842 18.6388C4.31988 18.6174 4.31099 18.5941 4.30921 18.575C4.30779 18.5598 4.30959 18.5377 4.3306 18.5068C4.80301 17.81 4.15568 16.9009 3.3427 17.1194C3.30654 17.1292 3.28511 17.1236 3.27118 17.1173C3.25378 17.1094 3.23462 17.0934 3.22047 17.0689C3.20632 17.0444 3.202 17.0197 3.20386 17.0007C3.20534 16.9855 3.21129 16.9642 3.23779 16.9377C3.83353 16.3429 3.36994 15.3278 2.53029 15.3885C2.49294 15.3912 2.47294 15.3818 2.46046 15.3729C2.44487 15.3619 2.4291 15.3425 2.41984 15.3157C2.41058 15.289 2.411 15.264 2.41642 15.2457C2.42077 15.231 2.43063 15.2112 2.46166 15.1902C3.1592 14.7189 2.8961 13.6344 2.06014 13.5351C2.02295 13.5307 2.00511 13.5176 1.99452 13.5066C1.98131 13.4928 1.96949 13.4708 1.96546 13.4427C1.96143 13.4147 1.96657 13.3903 1.97536 13.3733C1.9824 13.3597 1.99584 13.3422 2.03028 13.3274C2.80441 12.9967 2.75131 11.8819 1.94924 11.6263C1.91356 11.6149 1.89852 11.5987 1.89021 11.5858C1.87985 11.5697 1.87241 11.5459 1.87375 11.5176C1.8751 11.4894 1.88477 11.4663 1.89662 11.4513C1.90611 11.4393 1.92263 11.4246 1.95922 11.4167C2.78196 11.2384 2.94078 10.1338 2.2016 9.73089C2.16872 9.71297 2.15702 9.6942 2.1513 9.68C2.14416 9.66227 2.14137 9.63745 2.14804 9.60994C2.15471 9.58243 2.16857 9.56165 2.18304 9.54916C2.19463 9.53916 2.21363 9.52784 2.25107 9.52698C3.09269 9.50761 3.45769 8.45301 2.8081 7.91754C2.77921 7.89372 2.77127 7.87307 2.76834 7.85805C2.76468 7.83929 2.76664 7.81438 2.7784 7.78864C2.79016 7.76289 2.8077 7.7451 2.82427 7.73558C2.83754 7.72795 2.85835 7.72043 2.89527 7.72667C3.72534 7.86693 4.28333 6.90047 3.74682 6.25174C3.72296 6.22288 3.71907 6.2011 3.71904 6.1858C3.719 6.16668 3.72563 6.1426 3.74205 6.11954C3.75847 6.09648 3.77906 6.08234 3.79713 6.07612C3.81161 6.07115 3.83346 6.0677 3.86854 6.08082C4.65706 6.37563 5.38787 5.53224 4.98384 4.79369C4.96586 4.76084 4.96616 4.73872 4.96903 4.72368C4.97261 4.70491 4.98368 4.68251 5.00417 4.66298C5.02465 4.64345 5.04755 4.63345 5.06647 4.63077C5.08163 4.62863 5.10374 4.62938 5.13569 4.64889C5.85418 5.08761 6.73139 4.39776 6.47443 3.5961C6.463 3.56044 6.46748 3.53878 6.47314 3.52456C6.48021 3.5068 6.49532 3.4869 6.51913 3.4716C6.54294 3.4563 6.56732 3.45082 6.58641 3.45177C6.60169 3.45252 6.62326 3.45745 6.65095 3.48266C7.27342 4.04942 8.26534 3.53805 8.16473 2.70225C8.16026 2.66507 8.16876 2.64465 8.17701 2.63175C8.18731 2.61565 8.20591 2.59898 8.23219 2.58846C8.25846 2.57794 8.28343 2.57717 8.302 2.58171C8.31687 2.58535 8.33711 2.59427 8.35953 2.62426C8.86349 3.29859 9.93426 2.98418 9.99365 2.14444C9.99629 2.10709 10.0085 2.08864 10.019 2.07754C10.0322 2.06368 10.0536 2.05083 10.0814 2.04547C10.1092 2.04012 10.1339 2.04409 10.1512 2.05206C10.1652 2.05845 10.1834 2.07104 10.1997 2.10473Z" stroke="#FFD667" stroke-width="0.8"/>
<path d="M13.6403 14.2379L13.6423 14.2482L13.6423 14.2482L13.6427 14.25C13.676 14.4172 13.7182 14.629 13.76 14.8203C13.7986 14.9974 13.8433 15.1882 13.8847 15.3034C13.9576 15.5232 14.1039 15.7496 14.2437 15.9169C14.3163 16.0037 14.3986 16.0884 14.4839 16.1555C14.5265 16.1889 14.5774 16.224 14.6347 16.2522C14.6877 16.2784 14.7734 16.3123 14.8783 16.3123H17.9362H17.9765L18.0159 16.3043C18.044 16.2986 18.0733 16.3041 18.0975 16.3196C18.1207 16.3344 18.1375 16.3575 18.1446 16.3841C18.1474 16.3991 18.147 16.4146 18.1434 16.4295C18.1395 16.4455 18.132 16.4604 18.1215 16.4731L18.1145 16.4816L18.108 16.4904C17.8984 16.7741 17.67 17.0432 17.4242 17.2961L17.4237 17.2966C17.4123 17.3084 17.3979 17.3171 17.3821 17.3218C17.3663 17.3266 17.3496 17.3272 17.3335 17.3236L17.3312 17.3231L16.041 17.0438L15.6478 16.9587L15.5849 17.2578C15.5779 17.2661 15.5674 17.279 15.5565 17.2944C15.5505 17.303 15.5419 17.3156 15.533 17.3313C15.5249 17.3454 15.5106 17.372 15.4988 17.4074L15.4916 17.4291L15.4869 17.4515L15.1947 18.8393C15.1947 18.8393 15.1947 18.8394 15.1947 18.8394C15.1914 18.8547 15.1846 18.8691 15.1748 18.8813C15.165 18.8935 15.1525 18.9033 15.1382 18.9098L15.1376 18.9101C14.1542 19.3625 13.0841 19.5952 12.0017 19.5922L11.9996 19.5922C10.8913 19.5951 9.79636 19.3514 8.79401 18.8787L8.79216 18.8778C8.77865 18.8715 8.7668 18.8622 8.75755 18.8505L8.73107 18.817L8.69813 18.7899L5.8747 16.4641C5.87086 16.4541 5.86838 16.4435 5.86734 16.4328C5.86527 16.4112 5.86911 16.3895 5.87845 16.3699L5.87845 16.3699L5.87928 16.3681C5.88701 16.3517 5.89917 16.3378 5.91438 16.3279C5.92885 16.3185 5.94555 16.3132 5.96277 16.3123H11.7073H12.1073V15.9123V14.5721V14.1721H11.7073H10.297C10.2703 14.1721 10.2448 14.1615 10.2259 14.1426C10.2071 14.1238 10.1965 14.0982 10.1965 14.0716V12.6843C10.1965 12.6576 10.2071 12.6321 10.2259 12.6132C10.2448 12.5944 10.2703 12.5838 10.297 12.5838H12.2378C12.717 12.5838 13.3173 12.8527 13.5282 13.7034L13.5286 13.705C13.5534 13.8036 13.5933 13.9992 13.64 14.2368L13.6402 14.2379L13.6403 14.2379Z" stroke="#FFD667" stroke-width="0.8"/>
<path d="M13.8577 9.96369L13.8577 9.96426C13.858 10.178 13.7657 10.355 13.5792 10.4911C13.383 10.6342 13.0702 10.7378 12.6492 10.7378H10.3C10.2733 10.7378 10.2478 10.7272 10.2289 10.7084C10.2101 10.6895 10.1995 10.664 10.1995 10.6373V9.21298C10.1995 9.18633 10.2101 9.16077 10.2289 9.14193C10.2478 9.12309 10.2733 9.11251 10.3 9.11251H12.8334C12.9399 9.11251 13.2224 9.16789 13.4698 9.32326C13.7029 9.46963 13.8577 9.67053 13.8577 9.96369Z" stroke="#FFD667" stroke-width="0.8"/>
<path d="M17.7404 14.1362C17.7006 14.14 17.6607 14.142 17.6207 14.142C17.4127 14.1419 17.1967 14.0843 17.0297 13.9854C16.866 13.8883 16.7782 13.7709 16.7503 13.6562C16.6487 13.0852 16.5249 12.6971 16.3262 12.3878C16.1327 12.0865 15.8843 11.8893 15.624 11.6826C15.6165 11.6766 15.6089 11.6705 15.6012 11.6645L15.6005 11.6639C15.6005 11.6639 15.6004 11.6638 15.6004 11.6638C15.5827 11.6498 15.5685 11.6319 15.5587 11.6116L15.198 11.7845L15.5587 11.6116C15.55 11.5935 15.5451 11.5738 15.5443 11.5538C15.5468 11.5234 15.554 11.4988 15.5618 11.4825C15.5663 11.4731 15.5699 11.4687 15.5712 11.4672C16.4683 10.8921 17.0625 10.2067 17.0625 9.40216C17.0625 8.42305 16.4074 7.80747 15.9287 7.48797L15.9287 7.48794C15.2863 7.05929 14.5717 6.96923 14.3725 6.96923H6.4084C6.38926 6.96908 6.37055 6.96346 6.35449 6.95302C6.3383 6.9425 6.32549 6.92754 6.31758 6.90992C6.30967 6.89229 6.307 6.87276 6.30991 6.85366C6.31281 6.83457 6.32115 6.81671 6.33394 6.80224L6.33428 6.80185C7.43351 5.554 8.96178 4.66982 10.596 4.37988L10.5975 4.37959C10.612 4.37696 10.627 4.37803 10.6409 4.38271C10.6549 4.38738 10.6674 4.39551 10.6774 4.40634L10.6774 4.40636L10.6808 4.40998L11.6196 5.40292L11.8876 5.6863L12.1777 5.42563L13.3027 4.41467L13.3083 4.40964L13.3137 4.4044C13.3252 4.39317 13.3394 4.3849 13.3548 4.38029C13.3703 4.37568 13.3866 4.37485 13.4024 4.37788L13.4777 3.98503M17.7404 14.1362L18.9795 8.36918C19.0436 8.22404 19.0156 8.01985 18.9365 7.88172C18.3598 6.87823 17.5738 6.01076 16.6318 5.33835C15.6898 4.66593 14.614 4.20436 13.4777 3.98503M17.7404 14.1362C18.085 14.0962 18.3127 13.9708 18.4578 13.8011C18.6054 13.6283 18.7055 13.365 18.7076 12.9813L18.7099 12.5836H19.1076H19.486H19.4863C19.5116 12.5836 19.5361 12.574 19.5547 12.5567C19.5732 12.5395 19.5846 12.5158 19.5865 12.4905L19.9854 12.5201M17.7404 14.1362L19.9854 12.5201M13.4777 3.98503L13.4019 4.37778C14.4818 4.58622 15.5042 5.02488 16.3994 5.66391C17.2944 6.30281 18.0413 7.12701 18.5893 8.08044C18.5988 8.09703 18.6101 8.12807 18.6138 8.16371C18.617 8.19461 18.6126 8.20935 18.6128 8.20942C18.6128 8.20942 18.6128 8.20939 18.6129 8.20931M13.4777 3.98503C13.3988 3.96991 13.3173 3.97402 13.2403 3.99702L18.6129 8.20931M19.9674 11.1198C19.9587 11.0321 19.927 10.9482 19.8755 10.8767C19.824 10.8051 19.7546 10.7485 19.6741 10.7124L19.5107 11.0775L19.5105 11.0774M19.9674 11.1198L18.6132 8.20852L18.6129 8.20931M19.9674 11.1198C20.0136 11.5852 20.0196 12.0537 19.9854 12.5201M19.9674 11.1198L19.9854 12.5201M19.5105 11.0774L18.1666 10.4759L18.1532 10.47L18.1403 10.463C18.1117 10.4476 18.09 10.4315 18.076 10.42C18.0614 10.4081 18.0499 10.3971 18.0416 10.3887C18.0256 10.3723 18.0138 10.3576 18.0069 10.3487C18.0011 10.3412 17.9959 10.334 17.9914 10.3274L17.7326 10.2165L17.8946 9.84708L18.6129 8.20931M19.5105 11.0774C19.5266 11.0846 19.5406 11.096 19.5509 11.1104C19.5612 11.1247 19.5676 11.1416 19.5693 11.1592L19.5694 11.1593C19.6133 11.6018 19.619 12.0473 19.5865 12.4909L19.9854 12.5201M19.5105 11.0774L19.9854 12.5201M19.9854 12.5201C19.9761 12.6462 19.9194 12.764 19.8267 12.85C19.7341 12.9359 19.6124 12.9837 19.486 12.9836H19.1076L19.9854 12.5201ZM4.3006 14.1376L4.68512 14.0274C4.41248 13.0762 4.32883 12.0807 4.4389 11.0972L4.43918 11.0946C4.44097 11.0775 4.4472 11.0613 4.45725 11.0475C4.46731 11.0336 4.48082 11.0227 4.49644 11.0157L4.49721 11.0154L5.80836 10.4278L6.16908 10.2662L6.01172 9.90355C5.99801 9.87196 5.98406 9.84036 5.97005 9.80865C5.92133 9.69835 5.87205 9.58678 5.8308 9.47013C5.77561 9.31408 5.75802 9.20916 5.7627 9.15265C5.76407 9.136 5.76958 9.11995 5.77872 9.10597L5.44385 8.88719L5.77872 9.10597C5.78785 9.09198 5.80033 9.0805 5.81502 9.07255L5.6247 8.72073L5.81502 9.07255C5.82971 9.06461 5.84614 9.06045 5.86283 9.06046H5.86298H6.92691C6.95354 9.06046 6.97909 9.07104 6.99793 9.08988C7.01677 9.10872 7.02735 9.13428 7.02735 9.16093L7.02735 13.9965L7.02735 13.9973C7.02738 14.0104 7.02483 14.0234 7.01984 14.0355L7.38962 14.188L7.01984 14.0355C7.01485 14.0476 7.00753 14.0585 6.99829 14.0678C6.98905 14.0771 6.97808 14.0844 6.96601 14.0894C6.95393 14.0944 6.94099 14.097 6.92791 14.097H4.78102H4.78079C4.75909 14.097 4.73796 14.09 4.72058 14.077C4.7032 14.064 4.69049 14.0457 4.68437 14.0249L4.3006 14.1376ZM4.3006 14.1376C4.3311 14.2414 4.39439 14.3325 4.481 14.3973C4.56761 14.4621 4.67287 14.4971 4.78102 14.497M4.3006 14.1376C4.01357 13.1361 3.9255 12.0881 4.04137 11.0527C4.0505 10.9659 4.08231 10.883 4.13361 10.8124C4.18491 10.7418 4.2539 10.6859 4.33363 10.6503L4.78102 14.497M4.78102 14.497H6.92791C6.99359 14.497 7.05861 14.484 7.11927 14.4589C7.17993 14.4337 7.23504 14.3968 7.28143 14.3503L4.78102 14.497ZM15.3524 11.9776C15.9078 12.419 16.1611 12.6202 16.3582 13.7363C16.4713 14.2438 17.0708 14.542 17.6213 14.542C17.6751 14.5419 17.7289 14.5393 17.7825 14.534L15.3524 11.9776Z" stroke="#FFD667" stroke-width="0.8"/>
</svg>
