<svg width="24" height="24" viewBox="0 0 24 24" fill="none" xmlns="http://www.w3.org/2000/svg">
<path d="M12 22C17.5228 22 22 17.5228 22 12C22 6.47715 17.5228 2 12 2C6.47715 2 2 6.47715 2 12C2 17.5228 6.47715 22 12 22Z" stroke="#FFD667" stroke-linecap="round" stroke-linejoin="round"/>
<path d="M12 14C13.1046 14 14 13.1046 14 12C14 10.8954 13.1046 10 12 10C10.8954 10 10 10.8954 10 12C10 13.1046 10.8954 14 12 14Z" stroke="#FFD667" stroke-linecap="round" stroke-linejoin="round"/>
<path d="M12 18.1895C15.4184 18.1895 18.1896 15.4184 18.1896 12C18.1896 8.5816 15.4184 5.81045 12 5.81045C8.58161 5.81045 5.81046 8.5816 5.81046 12C5.81046 15.4184 8.58161 18.1895 12 18.1895Z" stroke="#FFD667" stroke-linecap="round" stroke-linejoin="round"/>
</svg>
