<svg width="24" height="24" viewBox="0 0 24 24" fill="none" xmlns="http://www.w3.org/2000/svg">
<path d="M16.3013 16.7792C15.5366 16.7792 15.3454 21.3672 15.3454 21.5584C15.3454 21.7495 15.0587 22.9921 16.3013 22.9921C17.5439 22.9921 18.0218 22.2275 18.6909 21.5584C19.36 20.8893 21.0805 20.7937 21.0805 20.1246C21.0805 19.4555 20.1246 19.1688 19.6467 18.6909C19.1688 18.2129 19.9335 16.7792 19.1688 16.7792M2.91956 21.0805C3.11072 20.3158 3.11072 19.4555 2.91956 18.6909C2.91956 17.9262 4.54448 18.0218 4.83123 17.735C5.11798 17.4483 5.0224 16.3013 5.78707 16.3013C6.55174 16.3013 7.02966 18.7864 8.17666 19.6467C9.89717 20.7937 9.706 22.9921 8.65458 22.9921C7.60316 22.9921 6.36057 22.1319 5.78707 22.0363C5.21357 21.9407 2.91956 21.9407 2.91956 21.0805Z" stroke="#AEABA4" stroke-width="0.955838" stroke-linecap="round" stroke-linejoin="round"/>
<path d="M13.9117 7.22082C15.5366 10.0883 16.3968 13.4338 16.3013 16.7792C16.3013 16.7792 16.2057 18.213 17.2571 18.213C18.3085 18.213 19.1688 18.4041 19.1688 15.8234C19.1688 10.9486 15.3454 9.41925 15.3454 7.22082C15.3454 5.78706 15.5366 1.00787 12 1.00787C10.3751 1.00787 9.13248 1.58138 9.13248 6.26498C9.13248 8.27224 7.88989 9.80158 7.22081 11.5221C6.55172 13.0514 6.0738 14.6764 5.78705 16.3013" stroke="#AEABA4" stroke-width="0.955838" stroke-linecap="round" stroke-linejoin="round"/>
<path d="M11.5221 5.78705C10.5663 5.78705 9.13251 6.6473 9.13251 7.22081C9.13251 7.79431 10.6618 8.65456 11.0442 8.65456C11.4265 8.65456 13.9117 7.50756 13.9117 7.22081C13.9117 6.26497 11.5221 5.78705 11.5221 5.78705Z" stroke="#AEABA4" stroke-width="0.955838" stroke-linecap="round" stroke-linejoin="round"/>
<path d="M9.22809 20.8893C10.1839 21.0805 13.8161 21.4628 15.5366 19.5511M9.13251 22.801C9.51484 22.3231 11.2354 22.0363 12 22.0363H15.2499" stroke="#AEABA4" stroke-width="0.955838" stroke-linecap="round" stroke-linejoin="round"/>
</svg>
