<svg width="24" height="24" viewBox="0 0 24 24" fill="none" xmlns="http://www.w3.org/2000/svg">
<path d="M12.0056 2.4H12.0058C13.2666 2.4 14.5151 2.64853 15.6799 3.13138C16.8446 3.61423 17.9028 4.32193 18.7938 5.21401C19.6849 6.10609 20.3914 7.16506 20.8729 8.33037C21.3544 9.49567 21.6015 10.7445 21.6 12.0053V12.0056C21.5989 13.9043 21.0348 15.76 19.979 17.3381C18.9232 18.9162 17.4232 20.1458 15.6686 20.8714C13.914 21.5969 11.9837 21.7859 10.1217 21.4144C8.25968 21.043 6.54966 20.1277 5.20785 18.7843C3.86604 17.4409 2.95272 15.7298 2.58338 13.8674C2.21404 12.005 2.40527 10.0749 3.13289 8.32111C3.8605 6.56736 5.09183 5.06875 6.67115 4.01481C8.25047 2.96086 10.1069 2.3989 12.0056 2.4Z" stroke="#AEABA4" stroke-width="0.8"/>
<path d="M8.42833 16.8857H5.66089C5.58042 16.8857 5.54019 16.8454 5.54019 16.765V11.4629C5.54019 11.3824 5.58042 11.3422 5.66089 11.3422H6.04885C6.12931 11.3422 6.16955 11.3824 6.16955 11.4629V16.2391C6.16955 16.2908 6.19828 16.3167 6.25576 16.3167H8.42833C8.50879 16.3167 8.54903 16.3598 8.54903 16.446V16.765C8.54903 16.8454 8.50879 16.8857 8.42833 16.8857Z" fill="#AEABA4"/>
<path d="M11.0248 16.8857H10.542C10.1512 16.8857 9.84658 16.7736 9.62817 16.5494C9.40977 16.3253 9.30056 16.012 9.30056 15.6097V12.6095C9.30056 12.529 9.3408 12.4888 9.42126 12.4888H9.80922C9.88969 12.4888 9.92992 12.529 9.92992 12.6095V15.5838C9.92992 16.0839 10.1684 16.3339 10.6455 16.3339H11.1369C11.3955 16.3339 11.5938 16.2649 11.7318 16.127C11.8697 15.989 11.9387 15.7936 11.9387 15.5407V12.6095C11.9387 12.529 11.9789 12.4888 12.0594 12.4888H12.4473C12.5278 12.4888 12.568 12.529 12.568 12.6095V16.765C12.568 16.8454 12.5278 16.8857 12.4473 16.8857H12.0594C11.9789 16.8857 11.9387 16.8454 11.9387 16.765V16.4287H11.9042C11.7605 16.7334 11.4674 16.8857 11.0248 16.8857Z" fill="#AEABA4"/>
<path d="M15.3934 16.8857H14.9451C14.5485 16.8857 14.2353 16.7736 14.0054 16.5494C13.7812 16.3253 13.6691 16.012 13.6691 15.6097V13.7647C13.6691 13.3624 13.7812 13.0492 14.0054 12.825C14.2353 12.6009 14.5485 12.4888 14.9451 12.4888H16.8159C16.8964 12.4888 16.9366 12.529 16.9366 12.6095V16.765C16.9366 16.8454 16.8964 16.8857 16.8159 16.8857H16.428C16.3475 16.8857 16.3073 16.8454 16.3073 16.765V16.4287H16.2728C16.1291 16.7334 15.836 16.8857 15.3934 16.8857ZM16.3073 15.5407V13.1182C16.3073 13.0664 16.2785 13.0406 16.221 13.0406H15.0141C14.537 13.0406 14.2985 13.2906 14.2985 13.7906V15.5838C14.2985 16.0839 14.537 16.3339 15.0141 16.3339H15.5055C15.7641 16.3339 15.9624 16.2649 16.1003 16.127C16.2383 15.989 16.3073 15.7936 16.3073 15.5407Z" fill="#AEABA4"/>
</svg>
